<?xml version="1.0" encoding="UTF-8"?>
<!DOCTYPE svg PUBLIC "-//W3C//DTD SVG 1.1//EN" "http://www.w3.org/Graphics/SVG/1.1/DTD/svg11.dtd">
<!-- Creator: CorelDRAW 2021 (64-Bit) -->
<svg xmlns="http://www.w3.org/2000/svg" xml:space="preserve" width="210mm" height="297mm" version="1.1" style="shape-rendering:geometricPrecision; text-rendering:geometricPrecision; image-rendering:optimizeQuality; fill-rule:evenodd; clip-rule:evenodd"
viewBox="0 0 21000 29700"
 xmlns:xlink="http://www.w3.org/1999/xlink"
 xmlns:xodm="http://www.corel.com/coreldraw/odm/2003">
 <defs>
  <style type="text/css">
   <![CDATA[
    .fil0 {fill:black}
    .fil1 {fill:white}
   ]]>
  </style>
 </defs>
 <g id="Layer_x0020_1">
  <metadata id="CorelCorpID_0Corel-Layer"/>
  <g id="_3042292454560">
   <g>
    <path class="fil0" d="M124.65 21121.81l295.6 407.37c120.58,150.92 197.94,249.07 324.15,408.23l1940.03 2458.97c348.12,-167.12 1483.56,-1882.65 3268.97,-1669.73 283,33.75 1538.46,468.79 1911.39,587.29 627.73,199.46 1271.6,386.72 1923.08,575.58 1016.19,294.59 3183.91,968.82 4111.06,320.14 971.79,-679.93 1963.61,-1396.31 2931.36,-2087.56 1167.39,-833.86 2471.06,-1760.01 3609.1,-2630.66 1044.08,-798.78 77.97,-2166.73 -1035.36,-1551.3 -537.78,297.29 -1024.86,638.75 -1517.04,957.21 -137.19,88.77 -2868.28,1956.66 -2953.98,2062.99 -125.49,155.69 -211.01,1129.45 -931.37,1589.75 -589.45,376.65 -1347.79,60.2 -1931.48,-143.04 -620.27,-215.98 -1214.63,-448.47 -1806.53,-696.17 -604.08,-252.79 -1170.26,-493.75 -1755.65,-748.48 -297.65,-129.53 -679.08,-227.75 -651.98,-615.81 23.06,-330.25 377.93,-582.64 749.94,-470.17l3476.96 1493.48c543.21,232.11 1278.37,688.9 1783.89,54.49 181.95,-228.33 336.84,-614.03 150.74,-970.07 -137.54,-263.1 -407.23,-363.72 -747.84,-507.94l-5281.69 -2192.32c-561.41,-233.27 -1221.61,-566.09 -1864.99,-631.1 -871.51,-88.07 -1309.72,290.14 -1803.25,659.58 -1109.6,830.62 -2381.66,1906.1 -3500.03,2776.15 -236.57,184.04 -452.66,365.83 -695.08,563.12z"/>
    <path class="fil0" d="M13839.22 19268.88c295.09,122.1 578.48,633.33 802.25,908.76 332.89,-183.33 2221.29,-1509.37 2750.2,-1857.74 196.65,-129.51 758.79,-551.75 931.68,-607.23 -80.3,-337.88 -458.38,-1059.16 -1025.06,-794.22 -166.61,77.89 -397.9,260.64 -568.7,372.14l-1730.23 1162.62c-193.68,128.04 -382.01,263 -580.11,394.66 -94.26,62.65 -194.74,131.25 -293.26,195.29l-286.77 225.72z"/>
    <path class="fil0" d="M12018.71 18484.1c158.78,128.23 179.78,286.4 443.58,291.86 469.86,9.73 456.42,115.59 593.53,57.88l2589.24 -1804.25c-594.86,-968.22 -1090.39,-412.81 -1879.02,129.52 -301.68,207.47 -591.18,434.03 -884.84,648.89 -185.22,135.51 -779.29,554.72 -862.49,676.1z"/>
   </g>
   <g>
    <path class="fil0" d="M10320.26 4918.45c-2587.88,292.86 -4794.26,2609.84 -4450.33,5582.43 296.29,2560.8 2618.34,4737 5551.75,4417.58 2572.75,-280.16 4763.03,-2611.52 4446.94,-5529.38 -279.27,-2577.94 -2600.19,-4804.27 -5548.36,-4470.63z"/>
    <path class="fil1" d="M7642.44 11397.13l13.86 161.74 789.98 -1.44 8.57 -1686.33c289.3,4.35 572.61,-14.7 749.96,151.42 172.62,161.68 249.81,272.04 397.15,483.6 233.39,335.14 463.06,765.36 707.66,1051.29l931.72 2.12c-21.4,-109.69 -478.92,-812.37 -572.5,-955.97 -184.22,-282.67 -290.59,-427.62 -530.42,-633.86 -129.85,-111.68 -146.4,-78.61 -235.43,-200.85 1004.55,-87.26 1376.46,-1246.81 728.43,-1914.59 -463.46,-477.6 -2181.97,-318.24 -2987.86,-318.24l-1.12 3861.11z"/>
    <path class="fil1" d="M12404.4 9043.02l-3.93 -384.35 -710.34 -12.13 -0.23 4005.72 759.68 15.83 3.97 -1441.98c250.01,174.51 707.61,686.23 1419.27,252.04 1235.55,-753.82 660.07,-3270.33 -848.54,-2858.99 -142.44,38.83 -219.62,79.85 -335.94,158.04l-283.94 265.82z"/>
    <path class="fil0" d="M12987.71 9200c-878.25,187.38 -666.42,2029.67 269.23,1809.73 741.55,-174.31 661.91,-2008.4 -269.23,-1809.73z"/>
    <path class="fil0" d="M8466.78 9239.54c709.48,-17.18 1645.94,163.49 1646.78,-522.35 0.88,-717.05 -1043.92,-498.61 -1636.04,-514.92 -48.46,176.76 -34.3,835.05 -10.74,1037.27z"/>
   </g>
  </g>
 </g>
</svg>
